<svg xmlns="http://www.w3.org/2000/svg" width="101" height="175.976" viewBox="0 0 101 175.976">
  <g id="logo" transform="translate(1948 88.927)">
    <g id="Group_10090" data-name="Group 10090" transform="translate(-2354.922 -171)">
      <path id="Path_3663" data-name="Path 3663" d="M426.451,82.073s6.542,9.12-3.568,26.763,5.649,30.332,5.649,30.332,1.884-8.724,6.84-15.266,2.577-14.669,2.577-14.669a15.8,15.8,0,0,1,.57,16.85,27.105,27.105,0,0,0-2.552,18.668l7.731,5.121s.4-5.154,6.344-10.9c2.973-2.578.991-10.508.991-10.508s5.854,5.353.647,14.076-1.836,13.678-1.836,13.678l3.994,8.127s-8.554-10.308-12.915-12.291-21.807-9.514-24.979-20.22.956-22.982,6.74-32.908,3.767-16.851,3.767-16.851" fill="#220e0e"/>
      <path id="Path_3664" data-name="Path 3664" d="M489.412,82.073s-6.542,9.12,3.568,26.763-5.65,30.332-5.65,30.332-1.883-8.724-6.839-15.266-2.577-14.669-2.577-14.669a15.8,15.8,0,0,0-.57,16.85,27.105,27.105,0,0,1,2.552,18.668l-7.731,5.121s-.4-5.154-6.344-10.9c-2.973-2.578-.991-10.508-.991-10.508s-5.855,5.353-.647,14.076,1.836,13.678,1.836,13.678l-3.994,8.127s8.554-10.308,12.915-12.291,21.807-9.514,24.979-20.22-.957-22.982-6.74-32.908-3.767-16.851-3.767-16.851" fill="#220e0e"/>
      <path id="Path_3667" data-name="Path 3667" d="M433.548,158.43a19.626,19.626,0,1,0,19.626,19.626,19.626,19.626,0,0,0-19.626-19.626m0,36.293a16.667,16.667,0,1,1,16.667-16.667,16.667,16.667,0,0,1-16.667,16.667" fill="#220e0e"/>
      <path id="Path_3668" data-name="Path 3668" d="M482.6,159.416a19.626,19.626,0,1,0,19.625,19.626A19.626,19.626,0,0,0,482.6,159.416m0,36.293a16.666,16.666,0,1,1,16.667-16.667A16.667,16.667,0,0,1,482.6,195.709" fill="#220e0e"/>
      <path id="Path_3669" data-name="Path 3669" d="M451.39,178.056a9.683,9.683,0,0,1,13.084,0l-.728,1.751a7.816,7.816,0,0,0-5.814-2.147,8.464,8.464,0,0,0-6.146,2.543Z" fill="#220e0e"/>
      <path id="Path_3671" data-name="Path 3671" d="M451.39,199.731a8.284,8.284,0,0,0,3.767,3.965c2.973,1.684,3.865,4.46,0,4.559a4.333,4.333,0,0,0,3.667,1.487,6.114,6.114,0,0,0,4.153-1.487s-1.774.5-2.666-.5-.6-2.973,1.586-3.965a12.381,12.381,0,0,0,4.039-3.667s-2.156-2.478-7.112.5a6.875,6.875,0,0,0-7.434-.892" fill="#220e0e"/>
      <g id="Group_10088" data-name="Group 10088">
        <path id="Path_3673" data-name="Path 3673" d="M432.525,167.692s-2.643,3.833-.66,6.873,4.625,1.982,6.079,4.1,2.272,8.454,1.982,9.384c0,0,1.058-23.79-7.4-20.354" fill="#220e0e"/>
        <path id="Path_3674" data-name="Path 3674" d="M431.078,165.552l-6,4.56a7.719,7.719,0,0,0,2.677-1.09c1.883-1.041-1.686,2.031-1.686,2.031a8.658,8.658,0,0,0,2.008-1.338s-.224,1.041-.818,1.338a6.83,6.83,0,0,0,1.734-1.14c.843-.793,1.834-.545,1.487-.148s-.346.495.6-.3,1.734.4,1.734.4l2.389-.6,1.149-.93s-2.348-2.837-5.272-2.787" fill="#220e0e"/>
        <path id="Path_3675" data-name="Path 3675" d="M430.553,174.478s1.354,4.1,5.12,3.833c0,0-4.889,1.04-5.12-3.833" fill="#220e0e"/>
        <path id="Path_3676" data-name="Path 3676" d="M436.064,169.4a8.121,8.121,0,0,1,.679,1.653c0,.34-.393-1.192-2.373-1.041,0,0,1.06-.748,1.694-.612" fill="#fff"/>
      </g>
      <g id="Group_10091" data-name="Group 10091">
        <path id="Path_3680" data-name="Path 3680" d="M480.577,169.756a8.115,8.115,0,0,0-.68,1.653c0,.34.394-1.192,2.374-1.042,0,0-1.06-.747-1.694-.611" fill="#fff"/>
        <path id="Path_3677" data-name="Path 3677" d="M484.115,168.049s2.644,3.833.661,6.872-4.626,1.982-6.08,4.1-2.272,8.453-1.982,9.383c0,0-1.057-23.79,7.4-20.353" fill="#220e0e"/>
        <path id="Path_3678" data-name="Path 3678" d="M485.563,165.91l6,4.56a7.706,7.706,0,0,1-2.676-1.091c-1.884-1.04,1.685,2.032,1.685,2.032a8.674,8.674,0,0,1-2.007-1.338s.223,1.041.817,1.338a6.856,6.856,0,0,1-1.734-1.14c-.843-.793-1.834-.545-1.487-.148s.347.495-.594-.3-1.735.4-1.735.4l-2.389-.6-1.148-.93s2.347-2.837,5.272-2.787" fill="#220e0e"/>
        <path id="Path_3679" data-name="Path 3679" d="M486.089,174.835s-1.354,4.1-5.12,3.833c0,0,4.888,1.04,5.12-3.833" fill="#220e0e"/>
      </g>
    </g>
    <text id="عين_المها" data-name="عين المها" transform="translate(-1947 66.964)" font-size="25.562" font-family="GEHili-Book, GE Hili"><tspan x="0" y="0">عين المها</tspan></text>
    <text id="Almaha_Eye" data-name="Almaha Eye" transform="translate(-1947 84.049)" font-size="11.706" font-family="ArialMT, Arial"><tspan x="0" y="0" letter-spacing="0.313em">A</tspan><tspan y="0" letter-spacing="0.594em">l</tspan><tspan y="0" letter-spacing="0.177em">m</tspan><tspan y="0" letter-spacing="0.321em">a</tspan><tspan y="0" letter-spacing="0.403em">h</tspan><tspan y="0" letter-spacing="0.321em">a</tspan><tspan y="0" letter-spacing="0.442em"> </tspan><tspan y="0" letter-spacing="0.204em">E</tspan><tspan y="0" letter-spacing="0.306em">y</tspan><tspan y="0">e</tspan></text>
  </g>
</svg>
