<svg xmlns="http://www.w3.org/2000/svg" width="168.645" height="76.823" viewBox="0 0 168.645 76.823">
  <g id="logo" transform="translate(-298.413 -82.073)">
    <g id="Group_10093" data-name="Group 10093">
      <path id="Path_3663" data-name="Path 3663" d="M421.828,82.073s3.937,5.488-2.147,16.1,3.4,18.252,3.4,18.252a26.741,26.741,0,0,1,4.116-9.186c2.982-3.936,1.551-8.827,1.551-8.827a9.51,9.51,0,0,1,.343,10.139,16.31,16.31,0,0,0-1.536,11.233l4.652,3.081s.239-3.1,3.817-6.56c1.789-1.551.6-6.323.6-6.323s3.523,3.221.389,8.47-1.1,8.231-1.1,8.231l2.4,4.89s-5.147-6.2-7.771-7.4-13.122-5.725-15.031-12.167.575-13.829,4.056-19.8,2.267-10.14,2.267-10.14" transform="translate(-0.367)" fill="#220e0e"/>
      <path id="Path_3664" data-name="Path 3664" d="M478.5,82.073s-3.937,5.488,2.147,16.1-3.4,18.252-3.4,18.252a26.733,26.733,0,0,0-4.115-9.186c-2.982-3.936-1.551-8.827-1.551-8.827a9.508,9.508,0,0,0-.343,10.139,16.31,16.31,0,0,1,1.536,11.233l-4.652,3.081s-.239-3.1-3.817-6.56c-1.789-1.551-.6-6.323-.6-6.323s-3.523,3.221-.389,8.47,1.1,8.231,1.1,8.231l-2.4,4.89s5.147-6.2,7.771-7.4,13.122-5.725,15.031-12.167-.576-13.829-4.056-19.8-2.267-10.14-2.267-10.14" transform="translate(-19.158)" fill="#220e0e"/>
      <path id="Path_3667" data-name="Path 3667" d="M425.732,158.43a11.81,11.81,0,1,0,11.81,11.81,11.81,11.81,0,0,0-11.81-11.81m0,21.839a10.029,10.029,0,1,1,10.029-10.029,10.029,10.029,0,0,1-10.029,10.029" transform="translate(0 -30.41)" fill="#220e0e"/>
      <path id="Path_3668" data-name="Path 3668" d="M474.787,159.416a11.81,11.81,0,1,0,11.809,11.81,11.809,11.809,0,0,0-11.809-11.81m0,21.839a10.029,10.029,0,1,1,10.029-10.029,10.029,10.029,0,0,1-10.029,10.029" transform="translate(-19.537 -30.803)" fill="#220e0e"/>
      <path id="Path_3669" data-name="Path 3669" d="M451.39,177.043a5.827,5.827,0,0,1,7.873,0l-.438,1.054a4.7,4.7,0,0,0-3.5-1.292,5.093,5.093,0,0,0-3.7,1.53Z" transform="translate(-14.922 -37.214)" fill="#220e0e"/>
      <path id="Path_3671" data-name="Path 3671" d="M451.39,199.449a4.985,4.985,0,0,0,2.267,2.386c1.789,1.013,2.326,2.684,0,2.743a2.607,2.607,0,0,0,2.207.895,3.679,3.679,0,0,0,2.5-.895s-1.068.3-1.6-.3-.358-1.789.954-2.386a7.45,7.45,0,0,0,2.43-2.207s-1.3-1.491-4.28.3a4.137,4.137,0,0,0-4.473-.537" transform="translate(-14.922 -46.577)" fill="#220e0e"/>
      <g id="Group_10088" data-name="Group 10088" transform="translate(420.637 132.305)">
        <path id="Path_3673" data-name="Path 3673" d="M431.968,167.557s-1.59,2.306-.4,4.136,2.783,1.193,3.658,2.465a12.613,12.613,0,0,1,1.193,5.647s.637-14.315-4.453-12.248" transform="translate(-427.489 -166.269)" fill="#220e0e"/>
        <path id="Path_3674" data-name="Path 3674" d="M428.69,165.552l-3.609,2.744a4.645,4.645,0,0,0,1.611-.656c1.133-.626-1.015,1.222-1.015,1.222a5.209,5.209,0,0,0,1.208-.805s-.135.626-.492.805a4.11,4.11,0,0,0,1.043-.686c.507-.477,1.1-.328.895-.089s-.208.3.358-.179,1.043.239,1.043.239l1.438-.358.691-.56a4.726,4.726,0,0,0-3.172-1.677" transform="translate(-425.081 -165.551)" fill="#220e0e"/>
        <path id="Path_3675" data-name="Path 3675" d="M430.553,174.478s.815,2.465,3.081,2.306c0,0-2.942.626-3.081-2.306" transform="translate(-427.26 -169.107)" fill="#220e0e"/>
        <path id="Path_3676" data-name="Path 3676" d="M435.389,169.392a4.887,4.887,0,0,1,.409.995c0,.2-.237-.717-1.428-.626,0,0,.638-.45,1.019-.368" transform="translate(-428.78 -167.077)" fill="#fff"/>
      </g>
      <g id="Group_10091" data-name="Group 10091" transform="translate(451.671 132.52)">
        <path id="Path_3680" data-name="Path 3680" d="M480.306,169.749a4.883,4.883,0,0,0-.409.995c0,.2.237-.717,1.429-.627,0,0-.638-.449-1.019-.368" transform="translate(-477.947 -167.435)" fill="#fff"/>
        <path id="Path_3677" data-name="Path 3677" d="M481.144,167.914s1.591,2.306.4,4.135-2.784,1.193-3.659,2.466a12.62,12.62,0,0,0-1.193,5.646s-.636-14.315,4.453-12.247" transform="translate(-476.656 -166.626)" fill="#220e0e"/>
        <path id="Path_3678" data-name="Path 3678" d="M483.463,165.91l3.608,2.744a4.637,4.637,0,0,1-1.61-.656c-1.134-.626,1.014,1.223,1.014,1.223a5.22,5.22,0,0,1-1.208-.805s.134.626.492.805a4.126,4.126,0,0,1-1.043-.686c-.507-.477-1.1-.328-.895-.089s.209.3-.357-.179-1.044.239-1.044.239l-1.438-.358-.691-.56a4.724,4.724,0,0,1,3.172-1.677" transform="translate(-478.104 -165.909)" fill="#220e0e"/>
        <path id="Path_3679" data-name="Path 3679" d="M484.05,174.835s-.815,2.465-3.081,2.306c0,0,2.941.626,3.081-2.306" transform="translate(-478.374 -169.464)" fill="#220e0e"/>
      </g>
    </g>
    <g id="Group_10092" data-name="Group 10092" transform="translate(-11 2.86)">
      <text id="عين_المها" data-name="عين المها" transform="translate(310.413 119.213)" font-size="25.562" font-family="GEHili-Book, GE Hili"><tspan x="0" y="0">عين المها</tspan></text>
      <text id="Almaha_Eye" data-name="Almaha Eye" transform="translate(310.413 136.298)" font-size="11.706" font-family="ArialMT, Arial"><tspan x="0" y="0" letter-spacing="0.313em">A</tspan><tspan y="0" letter-spacing="0.594em">l</tspan><tspan y="0" letter-spacing="0.177em">m</tspan><tspan y="0" letter-spacing="0.321em">a</tspan><tspan y="0" letter-spacing="0.403em">h</tspan><tspan y="0" letter-spacing="0.321em">a</tspan><tspan y="0" letter-spacing="0.442em"> </tspan><tspan y="0" letter-spacing="0.204em">E</tspan><tspan y="0" letter-spacing="0.306em">y</tspan><tspan y="0">e</tspan></text>
    </g>
  </g>
</svg>
